<svg width="188" height="64" viewBox="0 0 188 64" fill="none" xmlns="http://www.w3.org/2000/svg">
<path d="M30.5 24L27.5 40L39 40L42 24L30.5 24Z" fill="#121212"/>
<path d="M24.5713 25.1429L25.1427 40L26.4999 40L27.9999 25L24.5713 25.1429Z" fill="#121212"/>
<path d="M23.5 26.8763L22 27L24 40L24.5714 40L23.5 26.8763Z" fill="#121212"/>
<path d="M154.762 25.504H157.186V31.648L164.314 25.528H167.338L160.018 32.008L167.818 38.848H164.842L157.618 32.896L157.186 32.848V38.848H154.762V25.504Z" fill="#121212"/>
<path d="M145.667 36.928C149.051 36.928 150.563 35.008 150.563 32.056C150.563 29.104 149.051 27.184 145.667 27.184C142.259 27.184 140.747 29.104 140.747 32.056C140.747 35.008 142.259 36.928 145.667 36.928ZM138.347 32.056C138.347 28.192 140.963 25.024 145.667 25.024C150.347 25.024 152.963 28.192 152.963 32.056C152.963 35.92 150.347 39.088 145.667 39.088C140.963 39.088 138.347 35.92 138.347 32.056Z" fill="#121212"/>
<path d="M130.112 36.928C133.496 36.928 135.008 35.008 135.008 32.056C135.008 29.104 133.496 27.184 130.112 27.184C126.704 27.184 125.192 29.104 125.192 32.056C125.192 35.008 126.704 36.928 130.112 36.928ZM122.792 32.056C122.792 28.192 125.408 25.024 130.112 25.024C134.792 25.024 137.408 28.192 137.408 32.056C137.408 35.92 134.792 39.088 130.112 39.088C125.408 39.088 122.792 35.92 122.792 32.056Z" fill="#121212"/>
<path d="M117.391 25.48C119.719 25.48 121.231 27.088 121.231 29.296C121.231 30.52 120.919 31.432 120.367 32.056C121.255 32.68 121.855 33.64 121.855 34.864C121.855 37.432 119.863 38.848 117.535 38.848H108.895V25.48H117.391ZM111.343 36.664H117.175C118.711 36.664 119.551 35.992 119.551 34.792C119.551 33.808 118.711 33.136 116.215 33.136H111.343V36.664ZM111.343 31.12H116.455C117.991 31.12 119.071 30.736 119.071 29.392C119.071 28.504 117.991 27.64 116.455 27.64H111.343V31.12Z" fill="#121212"/>
<path d="M94.1729 25.48H106.965V27.664H96.5729V31.24H106.725V33.424H96.5729V36.664H107.445V38.848H94.1729V25.48Z" fill="#121212"/>
<path d="M80.5957 34.744C81.5797 35.872 82.6597 36.712 85.3957 36.832C87.6037 36.928 89.6677 36.736 89.8597 35.44C90.0997 34 88.8517 33.184 85.9957 32.824C82.4437 32.392 78.3877 32.224 78.3877 29.008C78.3877 25.072 84.3157 25.192 86.2357 25.312C88.7797 25.48 91.0597 26.488 92.0197 29.344H89.6197C89.2597 28.504 88.4677 27.592 85.4677 27.448C83.8837 27.376 80.9797 27.52 80.7877 28.744C80.5957 29.992 82.2037 30.184 85.0837 30.544C88.6117 30.976 92.2837 31.672 92.2837 35.248C92.2837 39.352 86.6917 39.088 84.7717 38.968C80.6917 38.704 79.0117 36.64 78.2197 34.744H80.5957Z" fill="#121212"/>
<path d="M72.129 25.48L77.649 38.848H75.081L73.233 34.384H66.873L65.025 38.848H62.457L67.977 25.48H72.129ZM67.761 32.2H72.345L70.473 27.664H69.633L67.761 32.2Z" fill="#121212"/>
<path d="M62.496 34.456C61.656 37.192 59.04 39.088 55.2 39.088C50.592 39.088 48 35.992 48 32.152C48 28.096 50.592 25 55.2 25C59.424 25 61.896 27.184 62.472 30.328H60.072C59.64 28.312 58.152 27.16 55.224 27.16C51.792 27.16 50.4 28.96 50.4 32.152C50.4 35.128 51.792 36.928 55.224 36.928C57.6 36.928 59.448 36.04 60.072 34.456H62.496Z" fill="#121212"/>
</svg>
